<svg id="Layer_1" height="512" viewBox="0 0 64 64" width="512" xmlns="http://www.w3.org/2000/svg" data-name="Layer 1"><path d="m62.024 52.17.524-.289a.845.845 0 0 0 .331-1.181l-1.45-2.4a.927.927 0 0 0 -1.235-.316l-.53.292a.959.959 0 0 1 -1.029-.084 7.685 7.685 0 0 0 -1.692-.939.89.89 0 0 1 -.589-.81v-.579a.885.885 0 0 0 -.9-.864h-2.9a.885.885 0 0 0 -.9.864v.579a.89.89 0 0 1 -.589.81 7.685 7.685 0 0 0 -1.692.939.959.959 0 0 1 -1.029.084l-.53-.292a.927.927 0 0 0 -1.235.316l-1.45 2.4a.845.845 0 0 0 .331 1.181l.524.289a.836.836 0 0 1 .445.841 6.924 6.924 0 0 0 0 1.978.836.836 0 0 1 -.445.841l-.524.289a.845.845 0 0 0 -.331 1.181l1.45 2.4a.927.927 0 0 0 1.235.316l.53-.292a.959.959 0 0 1 1.029.084 7.685 7.685 0 0 0 1.692.939.89.89 0 0 1 .589.81v.579a.885.885 0 0 0 .9.864h2.9a.885.885 0 0 0 .9-.864v-.579a.89.89 0 0 1 .589-.81 7.685 7.685 0 0 0 1.692-.939.959.959 0 0 1 1.029-.084l.53.292a.927.927 0 0 0 1.235-.316l1.45-2.4a.845.845 0 0 0 -.331-1.181l-.524-.289a.836.836 0 0 1 -.445-.841 6.924 6.924 0 0 0 0-1.978.836.836 0 0 1 .445-.841zm-8.024 5.205a3.375 3.375 0 1 1 3.375-3.375 3.375 3.375 0 0 1 -3.375 3.375z"/><path d="m18 53h-2v6a1 1 0 0 0 1 1h25v-2h-24z"/><path d="m38 43h-2v8a1 1 0 0 0 1 1h5v-2h-4z"/><path d="m54 32h2v10h-2z"/><path d="m31 49v-20a1 1 0 0 0 -1-1h-28a1 1 0 0 0 -1 1v20a1 1 0 0 0 1 1h28a1 1 0 0 0 1-1zm-6-17h-2v-2h2zm4 0h-2v-2h2z"/><path d="m46 39v-22a1 1 0 0 0 -1-1h-32a1 1 0 0 0 -1 1v9h19a2 2 0 0 1 2 2v12h12a1 1 0 0 0 1-1zm-6-19h-2v-2h2zm4 0h-2v-2h2z"/><path d="m62 1h-38a1 1 0 0 0 -1 1v12h23a2 2 0 0 1 2 2v13h14a1 1 0 0 0 1-1v-26a1 1 0 0 0 -1-1zm-5 4h-2v-2h2zm4 0h-2v-2h2z"/></svg>