<svg id="Glyph" viewBox="0 0 24 24" xmlns="http://www.w3.org/2000/svg"><path d="m15 7.25c-4.27 0-7.75 3.48-7.75 7.75s3.48 7.75 7.75 7.75 7.75-3.48 7.75-7.75-3.48-7.75-7.75-7.75zm-1.14 9.72c.29.29.29.77 0 1.06-.15.15-.34.22-.53.22s-.38-.07-.53-.22l-2.5-2.5c-.29-.29-.29-.77 0-1.06l2.5-2.5c.29-.29.77-.29 1.06 0s.29.77 0 1.06l-1.97 1.97zm5.83-1.44-2.5 2.5c-.15.15-.34.22-.53.22s-.38-.07-.53-.22c-.29-.29-.29-.77 0-1.06l1.97-1.97-1.97-1.97c-.29-.29-.29-.77 0-1.06s.77-.29 1.06 0l2.5 2.5c.29.29.29.77 0 1.06zm-11.01-7.3c-1.12 1.06-1.99 2.39-2.47 3.88-2.96-.26-4.66-.84-4.97-1.2v-4.35c1.93 1.31 5.26 1.63 7.44 1.67zm-2.22 10.34c-2.61-.3-5.22-1.03-5.22-2.57v-3.4c1.22.53 3 .81 4.61.97-.07.47-.11.94-.11 1.43 0 1.26.26 2.47.72 3.57zm3.04-17.32c-3.06 0-8.25.58-8.25 2.75s5.19 2.75 8.25 2.75 8.25-.58 8.25-2.75-5.19-2.75-8.25-2.75z"/></svg>