<svg xmlns="http://www.w3.org/2000/svg" xmlns:xlink="http://www.w3.org/1999/xlink" width="500" zoomAndPan="magnify" viewBox="0 0 375 374.999991" height="500" preserveAspectRatio="xMidYMid meet" version="1.0"><defs><g/><clipPath id="edd41212b6"><rect x="0" width="305" y="0" height="69"/></clipPath></defs><rect x="-37.5" width="450" fill="#ffffff" y="-37.499999" height="449.999989" fill-opacity="1"/><rect x="-37.5" width="450" fill="#000000" y="-37.499999" height="449.999989" fill-opacity="1"/><g transform="matrix(1, 0, 0, 1, 36, 153)"><g clip-path="url(#edd41212b6)"><g fill="#ffffff" fill-opacity="1"><g transform="translate(0.516471, 52.62886)"><g><path d="M 10.9375 0 L 3.34375 0 L 3.34375 -32.390625 L 12.265625 -32.390625 L 25.25 -11.25 L 25.390625 -11.25 L 25.203125 -32.390625 L 32.796875 -32.390625 L 32.796875 0 L 23.921875 0 L 10.890625 -21.1875 L 10.75 -21.1875 Z M 10.9375 0 "/></g></g></g><g fill="#ffffff" fill-opacity="1"><g transform="translate(38.66582, 52.62886)"><g><path d="M 25.9375 0 L 3.34375 0 L 3.34375 -32.390625 L 25.109375 -32.390625 L 25.109375 -25.75 L 10.890625 -25.75 L 10.890625 -19.671875 L 24.34375 -19.671875 L 24.34375 -13.40625 L 10.890625 -13.40625 L 10.890625 -6.671875 L 25.9375 -6.671875 Z M 25.9375 0 "/></g></g></g><g fill="#ffffff" fill-opacity="1"><g transform="translate(68.444286, 52.62886)"><g><path d="M 16.84375 0.875 C 14.03125 0.875 11.585938 0.328125 9.515625 -0.765625 C 7.441406 -1.867188 5.835938 -3.40625 4.703125 -5.375 C 3.578125 -7.34375 3.015625 -9.625 3.015625 -12.21875 L 3.015625 -32.390625 L 10.796875 -32.390625 L 10.796875 -12.859375 C 10.796875 -11.640625 11.007812 -10.523438 11.4375 -9.515625 C 11.863281 -8.503906 12.523438 -7.691406 13.421875 -7.078125 C 14.328125 -6.472656 15.476562 -6.171875 16.875 -6.171875 C 18.28125 -6.171875 19.441406 -6.472656 20.359375 -7.078125 C 21.273438 -7.691406 21.9375 -8.503906 22.34375 -9.515625 C 22.757812 -10.523438 22.96875 -11.640625 22.96875 -12.859375 L 22.96875 -32.390625 L 30.796875 -32.390625 L 30.796875 -12.21875 C 30.796875 -9.65625 30.222656 -7.378906 29.078125 -5.390625 C 27.929688 -3.410156 26.296875 -1.867188 24.171875 -0.765625 C 22.054688 0.328125 19.613281 0.875 16.84375 0.875 Z M 16.84375 0.875 "/></g></g></g><g fill="#ffffff" fill-opacity="1"><g transform="translate(104.215025, 52.62886)"><g><path d="M 3.34375 0 L 3.34375 -32.390625 L 15.6875 -32.390625 C 17.945312 -32.390625 20 -32.066406 21.84375 -31.421875 C 23.6875 -30.785156 25.1875 -29.742188 26.34375 -28.296875 C 27.507812 -26.847656 28.09375 -24.945312 28.09375 -22.59375 C 28.09375 -20.457031 27.492188 -18.628906 26.296875 -17.109375 C 25.109375 -15.585938 23.460938 -14.503906 21.359375 -13.859375 L 29.828125 0 L 20.671875 0 L 13.671875 -12.859375 L 11.03125 -12.859375 L 11.03125 0 Z M 14.6875 -18.53125 C 16.269531 -18.53125 17.609375 -18.8125 18.703125 -19.375 C 19.804688 -19.9375 20.359375 -20.96875 20.359375 -22.46875 C 20.359375 -23.832031 19.851562 -24.773438 18.84375 -25.296875 C 17.84375 -25.816406 16.609375 -26.078125 15.140625 -26.078125 L 10.984375 -26.078125 L 10.984375 -18.53125 Z M 14.6875 -18.53125 "/></g></g></g><g fill="#ffffff" fill-opacity="1"><g transform="translate(136.555065, 52.62886)"><g><path d="M 19.4375 0.875 C 16.082031 0.875 13.070312 0.148438 10.40625 -1.296875 C 7.738281 -2.753906 5.640625 -4.785156 4.109375 -7.390625 C 2.585938 -9.992188 1.828125 -12.972656 1.828125 -16.328125 C 1.828125 -19.710938 2.582031 -22.6875 4.09375 -25.25 C 5.601562 -27.8125 7.695312 -29.785156 10.375 -31.171875 C 13.0625 -32.566406 16.082031 -33.265625 19.4375 -33.265625 C 22.820312 -33.265625 25.847656 -32.566406 28.515625 -31.171875 C 31.191406 -29.785156 33.289062 -27.8125 34.8125 -25.25 C 36.34375 -22.6875 37.109375 -19.710938 37.109375 -16.328125 C 37.109375 -12.972656 36.34375 -9.992188 34.8125 -7.390625 C 33.289062 -4.785156 31.1875 -2.753906 28.5 -1.296875 C 25.8125 0.148438 22.789062 0.875 19.4375 0.875 Z M 19.4375 -6.265625 C 21.238281 -6.265625 22.84375 -6.691406 24.25 -7.546875 C 25.65625 -8.398438 26.753906 -9.597656 27.546875 -11.140625 C 28.335938 -12.679688 28.734375 -14.410156 28.734375 -16.328125 C 28.734375 -18.191406 28.335938 -19.878906 27.546875 -21.390625 C 26.753906 -22.898438 25.65625 -24.082031 24.25 -24.9375 C 22.84375 -25.789062 21.238281 -26.21875 19.4375 -26.21875 C 17.644531 -26.21875 16.046875 -25.789062 14.640625 -24.9375 C 13.234375 -24.082031 12.140625 -22.90625 11.359375 -21.40625 C 10.585938 -19.914062 10.203125 -18.222656 10.203125 -16.328125 C 10.203125 -14.410156 10.585938 -12.679688 11.359375 -11.140625 C 12.140625 -9.597656 13.234375 -8.398438 14.640625 -7.546875 C 16.046875 -6.691406 17.644531 -6.265625 19.4375 -6.265625 Z M 19.4375 -6.265625 "/></g></g></g><g fill="#ffffff" fill-opacity="1"><g transform="translate(177.498385, 52.62886)"><g><path d="M 14.6875 0 L 11.390625 0 L 11.390625 -29.46875 L 0.546875 -29.46875 L 0.546875 -32.390625 L 25.53125 -32.390625 L 25.53125 -29.46875 L 14.6875 -29.46875 Z M 14.6875 0 "/></g></g></g><g fill="#ffffff" fill-opacity="1"><g transform="translate(205.584378, 52.62886)"><g><path d="M 24.9375 0 L 4.296875 0 L 4.296875 -32.390625 L 24.390625 -32.390625 L 24.390625 -29.46875 L 7.59375 -29.46875 L 7.59375 -18.296875 L 23.28125 -18.296875 L 23.28125 -15.421875 L 7.59375 -15.421875 L 7.59375 -2.921875 L 24.9375 -2.921875 Z M 24.9375 0 "/></g></g></g><g fill="#ffffff" fill-opacity="1"><g transform="translate(234.676708, 52.62886)"><g><path d="M 19.4375 0.828125 C 16.207031 0.828125 13.3125 0.0976562 10.75 -1.359375 C 8.1875 -2.828125 6.179688 -4.859375 4.734375 -7.453125 C 3.285156 -10.046875 2.5625 -12.960938 2.5625 -16.203125 C 2.5625 -19.429688 3.289062 -22.34375 4.75 -24.9375 C 6.21875 -27.53125 8.238281 -29.554688 10.8125 -31.015625 C 13.394531 -32.484375 16.269531 -33.21875 19.4375 -33.21875 C 21.820312 -33.21875 24.054688 -32.75 26.140625 -31.8125 C 28.234375 -30.882812 29.84375 -29.644531 30.96875 -28.09375 L 28.234375 -26.078125 C 27.742188 -26.804688 27.070312 -27.5 26.21875 -28.15625 C 25.363281 -28.8125 24.351562 -29.335938 23.1875 -29.734375 C 22.03125 -30.128906 20.796875 -30.328125 19.484375 -30.328125 C 16.773438 -30.328125 14.40625 -29.6875 12.375 -28.40625 C 10.34375 -27.125 8.773438 -25.398438 7.671875 -23.234375 C 6.578125 -21.078125 6.03125 -18.734375 6.03125 -16.203125 C 6.03125 -13.660156 6.578125 -11.304688 7.671875 -9.140625 C 8.773438 -6.984375 10.347656 -5.265625 12.390625 -3.984375 C 14.441406 -2.703125 16.804688 -2.0625 19.484375 -2.0625 C 21.441406 -2.0625 23.25 -2.457031 24.90625 -3.25 C 26.570312 -4.039062 27.9375 -5.242188 29 -6.859375 L 31.5625 -5.21875 C 30.40625 -3.445312 28.78125 -1.992188 26.6875 -0.859375 C 24.601562 0.265625 22.1875 0.828125 19.4375 0.828125 Z M 19.4375 0.828125 "/></g></g></g><g fill="#ffffff" fill-opacity="1"><g transform="translate(269.624081, 52.62886)"><g><path d="M 7.59375 0 L 4.296875 0 L 4.296875 -32.390625 L 7.59375 -32.390625 L 7.59375 -18.34375 L 25.25 -18.34375 L 25.25 -32.390625 L 28.546875 -32.390625 L 28.546875 0 L 25.25 0 L 25.25 -15.328125 L 7.59375 -15.328125 Z M 7.59375 0 "/></g></g></g></g></g></svg>