<svg id="Capa_1" enable-background="new 0 0 511.996 511.996" viewBox="0 0 511.996 511.996" xmlns="http://www.w3.org/2000/svg"><g><path d="m134.567 310.511v-.622c-.001-52.193 19.538-101.405 55.149-139.373h-189.716v221.363c0 6.339 5.139 11.478 11.478 11.478h145.576c-13.415-27.201-21.049-58.246-22.461-92.223z"/><path d="m338.431 105.821h.406c13.251 0 26.208 1.291 38.766 3.726v-69.118c0-6.339-5.139-11.478-11.478-11.478h-354.647c-6.339 0-11.478 5.139-11.478 11.478v100.086h224.854c33.369-22.56 72.584-34.694 113.577-34.694zm-247.951-20.69c0 8.284-6.716 15-15 15s-15-6.716-15-15v-.892c0-8.284 6.716-15 15-15s15 6.716 15 15zm60 0c0 8.284-6.716 15-15 15s-15-6.716-15-15v-.892c0-8.284 6.716-15 15-15s15 6.716 15 15zm60 0c0 8.284-6.716 15-15 15s-15-6.716-15-15v-.892c0-8.284 6.716-15 15-15s15 6.716 15 15z"/><path d="m243.609 164.135 94.511 120.881 94.854-121.321c-27.275-17.673-59.713-27.914-94.34-27.874-34.927-.04-67.614 10.373-95.025 28.314z"/><path d="m511.996 294.37c-3.931-44.331-24.529-83.796-55.334-112.266l-87.774 112.266z"/><path d="m338.13 324.371c-.003 0-.006-.001-.009-.001h-.002s-.001 0-.002 0c-4.454-.004-8.859-1.98-11.815-5.76l-106.299-135.959c-34.017 31.731-55.437 76.933-55.436 127.236 9.394 226.123 324.815 230.601 347.065 14.483h-173.49c-.004 0-.008.001-.012.001z"/></g><g/><g/><g/><g/><g/><g/><g/><g/><g/><g/><g/><g/><g/><g/><g/></svg>