<svg id="workflow" viewBox="0 0 24 24" xmlns="http://www.w3.org/2000/svg"><rect height="6.5" rx="1.75" width="12.5" x="5.75" y="8.75"/><rect height="6.5" rx="1.75" width="12.5" x="5.75" y="1.25"/><rect height="6.5" rx="1.75" width="12.5" x="5.75" y="16.25"/><path d="m2 6.75c-.19 0-.38-.07-.53-.22-.29-.29-.29-.77 0-1.06l.97-.97-.97-.97c-.29-.29-.29-.77 0-1.06s.77-.29 1.06 0l1.5 1.5c.29.29.29.77 0 1.06l-1.5 1.5c-.15.15-.34.22-.53.22z"/><path d="m20.5 21.75c-.19 0-.38-.07-.53-.22-.29-.29-.29-.77 0-1.06l.97-.97-.97-.97c-.29-.29-.29-.77 0-1.06s.77-.29 1.06 0l1.5 1.5c.29.29.29.77 0 1.06l-1.5 1.5c-.15.15-.34.22-.53.22z"/><path d="m20 12.75h-.5c-.41 0-.75-.34-.75-.75s.34-.75.75-.75h.5c.69 0 1.25-.56 1.25-1.25v-3.5c0-.69-.56-1.25-1.25-1.25h-.5c-.41 0-.75-.34-.75-.75s.34-.75.75-.75h.5c1.52 0 2.75 1.23 2.75 2.75v3.5c0 1.52-1.23 2.75-2.75 2.75z"/><path d="m4.5 20.25h-.5c-1.52 0-2.75-1.23-2.75-2.75v-3.5c0-1.52 1.23-2.75 2.75-2.75h.5c.41 0 .75.34.75.75s-.34.75-.75.75h-.5c-.69 0-1.25.56-1.25 1.25v3.5c0 .69.56 1.25 1.25 1.25h.5c.41 0 .75.34.75.75s-.34.75-.75.75z"/></svg>